<?xml version="1.0" standalone="no"?>
<!DOCTYPE svg PUBLIC "-//W3C//DTD SVG 20010904//EN"
 "http://www.w3.org/TR/2001/REC-SVG-20010904/DTD/svg10.dtd">
<svg version="1.0" xmlns="http://www.w3.org/2000/svg"
 width="3400.000000pt" height="820.000000pt" viewBox="0 0 3400.000000 820.000000"
 preserveAspectRatio="xMidYMid meet">
<metadata>
Created by potrace 1.16, written by Peter Selinger 2001-2019
</metadata>
<g transform="translate(0.000000,820.000000) scale(0.100000,-0.100000)"
fill="#2864f0" stroke="none">
<path d="M1850 7660 c-5 -3 -12 -30 -15 -60 -4 -30 -19 -129 -35 -220 -27
-155 -47 -277 -120 -720 -17 -102 -44 -266 -61 -365 -16 -99 -43 -261 -60
-360 -16 -99 -43 -259 -59 -355 -16 -96 -52 -314 -80 -485 -28 -170 -63 -386
-80 -480 -16 -93 -31 -188 -34 -210 -4 -22 -20 -121 -37 -220 -16 -99 -43
-259 -59 -355 -65 -391 -91 -544 -120 -720 -17 -102 -44 -264 -60 -360 -70
-421 -142 -851 -180 -1080 -48 -290 -87 -519 -121 -725 -17 -104 -44 -262 -59
-350 -15 -88 -25 -163 -21 -168 4 -4 209 -6 457 -5 l449 3 33 190 c18 105 46
269 62 365 16 96 43 258 60 360 17 102 44 264 60 360 16 96 43 261 60 365 60
360 89 531 120 720 17 105 45 267 61 360 16 94 32 190 35 215 3 25 17 106 30
180 13 74 26 155 29 180 3 25 17 106 30 180 13 74 26 151 29 170 17 122 52
320 56 320 3 0 15 -28 26 -62 68 -197 250 -725 275 -793 15 -44 96 -276 179
-515 83 -239 164 -471 180 -515 15 -44 94 -271 175 -505 81 -234 200 -578 265
-765 65 -187 156 -447 201 -578 l82 -237 441 0 441 0 79 228 c43 125 91 263
106 307 16 44 70 199 120 345 128 372 277 800 310 895 26 73 97 280 341 990
50 143 103 296 118 340 46 130 283 819 297 864 7 22 12 10 18 -51 3 -31 19
-133 35 -225 29 -167 62 -359 120 -713 17 -102 40 -241 51 -309 12 -69 23
-141 26 -160 2 -20 16 -103 30 -186 24 -146 52 -312 115 -695 17 -102 43 -261
59 -355 16 -93 42 -255 60 -360 68 -414 90 -547 121 -727 l33 -188 453 0 c415
0 453 1 453 17 0 9 -9 66 -19 127 -11 61 -34 199 -51 306 -17 107 -45 269 -60
360 -16 91 -32 185 -35 210 -3 25 -19 122 -35 215 -16 94 -43 256 -60 360 -17
105 -44 269 -60 365 -16 96 -43 261 -60 365 -17 105 -43 255 -56 335 -14 80
-28 163 -30 185 -3 22 -14 91 -25 154 -11 63 -23 133 -25 155 -3 23 -16 102
-29 176 -13 74 -26 153 -29 175 -4 40 -30 191 -86 520 -16 94 -31 188 -34 210
-2 22 -16 110 -31 195 -61 359 -84 498 -90 540 -3 25 -17 106 -30 180 -13 74
-27 155 -30 180 -3 25 -19 124 -36 220 -16 96 -43 258 -60 360 -17 102 -44
264 -59 360 -16 96 -43 261 -61 365 -17 105 -44 265 -60 356 -16 92 -29 180
-29 195 0 57 16 54 -425 54 -224 0 -409 -1 -410 -2 -3 -3 -155 -443 -180 -523
-8 -22 -48 -139 -90 -260 -42 -121 -87 -251 -100 -290 -12 -38 -66 -196 -120
-350 -53 -154 -157 -458 -232 -675 -74 -217 -153 -447 -175 -510 -22 -63 -48
-140 -58 -170 -10 -30 -64 -188 -120 -350 -100 -290 -118 -342 -236 -687 -32
-95 -61 -173 -64 -173 -3 0 -28 66 -57 148 -50 142 -76 220 -293 852 -160 467
-219 639 -250 725 -15 44 -57 166 -93 270 -36 105 -95 278 -132 385 -37 107
-77 224 -90 260 -23 64 -205 594 -371 1080 -46 135 -87 251 -91 258 -8 13
-793 24 -813 12z"/>
<path d="M20557 7654 c-3 -3 3 -29 15 -58 11 -28 42 -112 68 -186 27 -74 80
-220 118 -325 38 -104 102 -280 142 -390 40 -110 131 -360 202 -555 71 -195
151 -416 178 -490 27 -74 80 -220 118 -325 38 -104 225 -620 416 -1145 330
-907 393 -1079 435 -1195 10 -27 30 -81 44 -120 14 -38 41 -113 61 -165 19
-52 100 -277 181 -500 80 -223 152 -422 160 -442 8 -21 54 -144 101 -275 48
-131 117 -321 154 -423 37 -102 88 -243 114 -315 26 -71 64 -175 85 -230 l37
-100 505 -3 505 -2 31 87 c18 49 52 144 78 213 26 69 57 154 70 190 13 36 53
146 90 245 36 99 113 311 171 470 58 160 129 351 156 425 57 153 109 295 143
390 13 36 44 121 70 190 25 69 82 222 125 340 43 118 100 271 125 340 25 69
72 197 105 285 32 88 106 291 165 450 59 160 117 319 130 355 13 36 44 121 70
190 26 69 50 136 55 150 5 14 28 79 53 145 25 66 97 264 162 440 64 176 189
516 277 755 223 608 222 604 262 715 21 55 45 123 56 150 10 28 43 118 74 200
30 83 84 230 120 328 36 98 66 180 66 182 0 3 -209 5 -464 5 l-464 0 -30 -82
c-73 -200 -298 -813 -377 -1028 -48 -129 -91 -246 -95 -260 -5 -14 -28 -79
-53 -145 -25 -66 -82 -221 -127 -345 -45 -124 -100 -272 -122 -330 -21 -58
-56 -152 -77 -210 -67 -184 -282 -771 -328 -895 -25 -66 -64 -174 -88 -240
-24 -66 -64 -174 -88 -240 -113 -304 -231 -626 -252 -685 -44 -124 -156 -424
-159 -427 -4 -5 -47 110 -280 752 -80 220 -166 456 -191 525 -26 69 -53 143
-60 165 -8 22 -34 96 -60 165 -44 118 -56 152 -125 345 -15 44 -49 136 -75
205 -25 69 -52 143 -60 165 -8 22 -152 418 -320 880 -168 462 -374 1027 -457
1255 -82 228 -155 421 -160 428 -11 13 -1768 19 -1781 6z"/>
<path d="M7955 7638 c-3 -7 -4 -258 -3 -558 l3 -545 1070 -6 c664 -4 1101 -10
1151 -17 171 -22 390 -88 528 -158 202 -103 377 -289 434 -459 47 -138 50
-513 6 -681 -78 -301 -321 -513 -694 -608 -192 -48 -204 -49 -1380 -55 l-1115
-6 0 -2070 0 -2070 435 0 435 0 3 1523 2 1522 478 0 479 0 64 -92 c35 -51 75
-109 89 -130 14 -20 64 -92 111 -160 408 -587 602 -866 653 -941 72 -103 294
-422 364 -522 27 -38 111 -160 187 -270 76 -110 189 -272 250 -360 61 -88 176
-253 255 -367 l144 -208 928 0 c654 0 928 3 928 11 0 6 -90 142 -199 302 -110
161 -227 333 -261 382 -34 50 -167 245 -297 435 -129 190 -288 422 -351 515
-64 94 -250 366 -414 605 -163 239 -321 470 -350 513 -59 87 -125 184 -292
427 -63 91 -111 168 -107 172 3 4 79 41 169 82 580 268 866 558 1026 1041 99
301 126 760 62 1065 -170 812 -831 1425 -1728 1604 -160 32 -302 52 -518 73
-235 23 -2537 33 -2545 11z"/>
<path d="M28905 7633 c-436 -55 -710 -193 -1013 -508 -216 -224 -348 -466
-422 -770 -51 -207 -51 -220 -48 -881 l3 -619 37 -135 c172 -636 622 -1100
1204 -1240 236 -57 131 -53 1599 -59 l1360 -7 74 -22 c177 -55 261 -127 320
-279 l26 -68 3 -549 c3 -601 2 -613 -54 -726 -53 -104 -125 -159 -279 -211
l-70 -24 -2113 -3 -2112 -2 2 -563 3 -562 2220 0 c2318 0 2241 -1 2475 41 745
136 1249 685 1335 1455 24 218 21 1310 -4 1479 -42 284 -188 584 -403 830
-225 257 -465 412 -778 500 -228 65 -187 63 -1610 70 -1370 7 -1357 7 -1486
53 -165 60 -280 171 -324 315 -19 60 -20 94 -20 483 0 440 3 484 46 575 52
110 180 215 331 271 l78 28 2015 5 2015 5 0 560 0 560 -2190 1 c-1204 1 -2203
-1 -2220 -3z"/>
<path d="M14187 7623 c-9 -8 -9 -7185 -1 -7207 6 -14 102 -16 993 -16 975 0
1243 6 1516 35 77 9 185 20 240 26 139 14 436 72 590 115 951 263 1873 1174
2230 2204 231 667 257 1583 64 2300 -149 555 -407 1007 -799 1401 -705 708
-1522 1065 -2598 1134 -237 15 -2221 23 -2235 8z m2158 -1113 c321 -21 638
-122 895 -287 157 -100 399 -298 476 -390 305 -361 523 -1116 524 -1808 0
-655 -188 -1385 -455 -1770 -196 -281 -640 -568 -1015 -656 -266 -63 -365 -69
-1112 -69 l-598 0 0 2495 0 2495 573 0 c314 0 635 -5 712 -10z"/>
</g>
<g transform="translate(0.000000,820.000000) scale(0.100000,-0.100000)" fill="#50d9eb" stroke="none">
<path d="M25925 7638 c-35 -96 -316 -862 -627 -1708 -88 -239 -196 -534 -240
-655 -44 -121 -101 -274 -125 -340 -25 -66 -55 -149 -68 -185 -13 -36 -53
-146 -90 -245 -37 -99 -77 -209 -90 -245 -13 -36 -71 -195 -130 -355 -59 -159
-133 -362 -165 -450 -33 -88 -80 -216 -105 -285 -25 -69 -71 -192 -101 -274
-30 -82 -58 -154 -63 -160 -5 -6 -32 -74 -59 -151 -28 -77 -72 -196 -97 -265
-26 -69 -57 -154 -70 -190 -13 -36 -39 -108 -58 -160 -65 -178 -498 -1365
-532 -1458 l-33 -92 462 0 462 0 21 63 c12 34 41 116 66 182 85 230 239 651
292 800 30 83 75 206 100 275 26 69 66 179 90 245 24 66 92 251 150 410 59
160 133 362 165 450 33 88 79 214 103 280 24 66 81 219 125 340 44 121 103
283 132 360 29 77 67 181 85 230 18 50 58 158 88 240 31 83 140 380 243 660
102 281 206 562 229 625 23 63 79 214 123 335 44 121 103 281 130 355 28 74
116 315 197 535 81 220 182 497 226 616 43 118 79 218 79 222 0 14 -910 8
-915 -5z"/>
</g>
</svg>
